<?xml version="1.0" encoding="UTF-8" standalone="no"?>
<!-- Created with Inkscape (http://www.inkscape.org/) -->

<svg
   xmlns:dc="http://purl.org/dc/elements/1.1/"
   xmlns:cc="http://creativecommons.org/ns#"
   xmlns:rdf="http://www.w3.org/1999/02/22-rdf-syntax-ns#"
   xmlns:svg="http://www.w3.org/2000/svg"
   xmlns="http://www.w3.org/2000/svg"
   xmlns:sodipodi="http://sodipodi.sourceforge.net/DTD/sodipodi-0.dtd"
   xmlns:inkscape="http://www.inkscape.org/namespaces/inkscape"
   id="svg2"
   version="1.1"
   inkscape:version="0.91 r13725"
   xml:space="preserve"
   width="2020.0125"
   height="915"
   viewBox="0 0 2020.0125 915"
   sodipodi:docname="ok-ee.svg"><metadata
     id="metadata8"><rdf:RDF><cc:Work
         rdf:about=""><dc:format>image/svg+xml</dc:format><dc:type
           rdf:resource="http://purl.org/dc/dcmitype/StillImage" /><dc:title></dc:title></cc:Work></rdf:RDF></metadata><defs
     id="defs6"><clipPath
       clipPathUnits="userSpaceOnUse"
       id="clipPath16"><path
         d="m 0,732 1616.012,0 0,-732 L 0,0 0,732 Z"
         id="path18"
         inkscape:connector-curvature="0" /></clipPath><clipPath
       clipPathUnits="userSpaceOnUse"
       id="clipPath80"><path
         d="m 0,732 1616.012,0 0,-732 L 0,0 0,732 Z"
         id="path82"
         inkscape:connector-curvature="0" /></clipPath></defs><sodipodi:namedview
     pagecolor="#ffffff"
     bordercolor="#666666"
     borderopacity="1"
     objecttolerance="10"
     gridtolerance="10"
     guidetolerance="10"
     inkscape:pageopacity="0"
     inkscape:pageshadow="2"
     inkscape:window-width="1920"
     inkscape:window-height="1055"
     id="namedview4"
     showgrid="false"
     inkscape:zoom="0.85544027"
     inkscape:cx="476.61438"
     inkscape:cy="436.95088"
     inkscape:window-x="1280"
     inkscape:window-y="0"
     inkscape:window-maximized="1"
     inkscape:current-layer="g10" /><g
     id="g10"
     inkscape:groupmode="layer"
     inkscape:label="OK_LG_LOGO_MASTER_RGB"
     transform="matrix(1.25,0,0,-1.25,0,915)"><g
       id="g12"><g
         id="g14"
         clip-path="url(#clipPath16)"><g
           id="g20"
           transform="translate(797.3223,479.6064)"><path
             d="m 0,0 c -9.67,0 -15.322,-6.544 -15.322,-17.291 0,-10.858 5.652,-17.291 15.322,-17.291 9.594,0 15.246,6.433 15.246,17.291 C 15.246,-6.544 9.594,0 0,0 m 0,-44.994 c -16.883,0 -28.188,12.048 -28.188,27.703 0,15.655 11.305,27.666 28.188,27.666 16.844,0 28.111,-12.085 28.111,-27.666 0,-15.655 -11.267,-27.703 -28.111,-27.703"
             style="fill:#7ab800;fill-opacity:1;fill-rule:nonzero;stroke:none"
             id="path22"
             inkscape:connector-curvature="0" /></g><g
           id="g24"
           transform="translate(860.3223,462.7988)"><path
             d="m 0,0 6.545,0 c 6.545,0 9.223,3.272 9.223,8.888 0,4.945 -2.901,8.292 -9.223,8.292 L 0,17.18 0,0 Z m 0,-9.482 0,-18.11 -12.568,0 0,54.18 19.113,0 c 15.246,0 21.791,-7.697 21.791,-17.7 0,-10.822 -6.805,-18.37 -21.791,-18.37 l -6.545,0 z"
             style="fill:#7ab800;fill-opacity:1;fill-rule:nonzero;stroke:none"
             id="path26"
             inkscape:connector-curvature="0" /></g><g
           id="g28"
           transform="translate(946.4512,489.3867)"><path
             d="m 0,0 0,-9.668 -22.238,0 0,-12.644 17.031,0 0,-9.296 -17.031,0 0,-12.904 22.238,0 0,-9.668 -34.881,0 0,54.18 L 0,0 Z"
             style="fill:#7ab800;fill-opacity:1;fill-rule:nonzero;stroke:none"
             id="path30"
             inkscape:connector-curvature="0" /></g><g
           id="g32"
           transform="translate(983.6426,487.4531)"><path
             d="m 0,0 25.732,-32.538 c -0.185,2.083 -0.296,4.054 -0.296,5.802 l 0,28.67 11.082,0 0,-54.18 -6.545,0 c -1.934,0 -3.162,0.483 -4.389,2.082 L 0.037,-17.887 c 0.149,-1.896 0.262,-3.718 0.262,-5.317 l 0,-29.042 -11.082,0 0,54.18 6.619,0 C -2.008,1.934 -1.375,1.673 0,0"
             style="fill:#7ab800;fill-opacity:1;fill-rule:nonzero;stroke:none"
             id="path34"
             inkscape:connector-curvature="0" /></g><g
           id="g36"
           transform="translate(784.5293,366.959)"><path
             d="m 0,0 2.008,0 c 1.859,0 3.199,0.595 4.015,1.747 l 12.198,17.701 c 1.34,1.934 2.937,2.491 5.429,2.491 l 10.932,0 L 18.52,0.037 c -1.155,-1.6 -2.381,-2.566 -3.682,-3.272 1.896,-0.707 3.42,-1.823 4.723,-3.868 l 16.361,-25.137 -11.231,0 c -2.863,0 -3.904,0.818 -4.908,2.305 L 7.512,-11.082 c -0.893,1.376 -2.119,1.896 -4.463,1.896 l -3.049,0 0,-23.054 -12.568,0 0,54.179 L 0,21.939 0,0 Z"
             style="fill:#7ab800;fill-opacity:1;fill-rule:nonzero;stroke:none"
             id="path38"
             inkscape:connector-curvature="0" /></g><g
           id="g40"
           transform="translate(855.1152,386.9648)"><path
             d="m 0,0 25.732,-32.538 c -0.185,2.083 -0.296,4.054 -0.296,5.802 l 0,28.67 11.082,0 0,-54.18 -6.545,0 c -1.934,0 -3.162,0.483 -4.389,2.082 L 0.037,-17.887 c 0.149,-1.896 0.262,-3.718 0.262,-5.317 l 0,-29.042 -11.082,0 0,54.18 6.619,0 C -2.008,1.934 -1.375,1.673 0,0"
             style="fill:#7ab800;fill-opacity:1;fill-rule:nonzero;stroke:none"
             id="path42"
             inkscape:connector-curvature="0" /></g><g
           id="g44"
           transform="translate(943.7754,379.1182)"><path
             d="m 0,0 c -9.668,0 -15.32,-6.544 -15.32,-17.291 0,-10.858 5.652,-17.291 15.32,-17.291 9.594,0 15.246,6.433 15.246,17.291 C 15.246,-6.544 9.594,0 0,0 m 0,-44.994 c -16.883,0 -28.188,12.048 -28.188,27.703 0,15.655 11.305,27.666 28.188,27.666 16.846,0 28.113,-12.085 28.113,-27.666 0,-15.655 -11.267,-27.703 -28.113,-27.703"
             style="fill:#7ab800;fill-opacity:1;fill-rule:nonzero;stroke:none"
             id="path46"
             inkscape:connector-curvature="0" /></g><g
           id="g48"
           transform="translate(985.6543,388.8984)"><path
             d="m 0,0 10.561,0 c 2.193,0 3.718,-1.078 4.164,-2.715 l 7.437,-28.261 c 0.483,-1.822 1.041,-3.942 1.301,-6.21 0.484,2.343 1.115,4.388 1.674,6.21 l 8.775,28.261 C 34.359,-1.339 35.92,0 38.004,0 l 3.717,0 c 2.195,0 3.607,-1.041 4.166,-2.715 l 8.701,-28.261 c 0.558,-1.748 1.189,-3.681 1.637,-5.913 0.408,2.195 0.818,4.165 1.263,5.913 l 7.438,28.261 C 65.334,-1.265 66.934,0 69.016,0 l 9.892,0 -16.734,-54.18 -11.379,0 -10.19,33.579 c -0.334,1.041 -0.742,2.305 -1.078,3.681 -0.334,-1.376 -0.744,-2.64 -1.078,-3.681 L 28.111,-54.18 16.732,-54.18 0,0 Z"
             style="fill:#7ab800;fill-opacity:1;fill-rule:nonzero;stroke:none"
             id="path50"
             inkscape:connector-curvature="0" /></g><g
           id="g52"
           transform="translate(1099.8262,344.7588)"><path
             d="m 0,0 20.08,0 0,-10.04 -32.65,0 0,54.18 L 0,44.14 0,0 Z"
             style="fill:#7ab800;fill-opacity:1;fill-rule:nonzero;stroke:none"
             id="path54"
             inkscape:connector-curvature="0" /></g><g
           id="g56"
           transform="translate(1181.4922,388.8984)"><path
             d="m 0,0 0,-9.668 -22.236,0 0,-12.644 17.031,0 0,-9.296 -17.031,0 0,-12.904 22.236,0 0,-9.668 -34.881,0 0,54.18 L 0,0 Z"
             style="fill:#7ab800;fill-opacity:1;fill-rule:nonzero;stroke:none"
             id="path58"
             inkscape:connector-curvature="0" /></g><g
           id="g60"
           transform="translate(1228.9473,379.2305)"><path
             d="m 0,0 -8.404,0 0,-34.844 8.404,0 c 9.594,0 15.246,6.619 15.246,17.441 C 15.246,-6.656 9.594,0 0,0 m 0,-44.512 -21.047,0 0,54.18 21.047,0 c 16.846,0 28.113,-11.49 28.113,-27.071 0,-15.656 -11.267,-27.109 -28.113,-27.109"
             style="fill:#7ab800;fill-opacity:1;fill-rule:nonzero;stroke:none"
             id="path62"
             inkscape:connector-curvature="0" /></g><g
           id="g64"
           transform="translate(1313.3672,345.4277)"><path
             d="m 0,0 0,8.219 -5.355,0 c -1.598,0 -2.528,0.929 -2.528,2.23 l 0,6.917 19.262,0 0,-22.869 c -5.541,-4.054 -11.899,-5.801 -20.75,-5.801 -15.84,0 -27.666,11.825 -27.666,27.703 0,16.176 11.156,27.666 28.633,27.666 9.074,0 15.804,-3.123 20.154,-7.288 L 8.107,31.236 C 7.4,30.195 6.434,29.563 5.281,29.563 c -0.744,0 -1.525,0.26 -2.306,0.744 -3.979,2.38 -6.768,3.383 -11.825,3.383 -9.371,0 -15.32,-6.916 -15.32,-17.291 0,-11.453 6.693,-18.035 15.766,-18.035 3.459,0 6.025,0.632 8.404,1.636"
             style="fill:#7ab800;fill-opacity:1;fill-rule:nonzero;stroke:none"
             id="path66"
             inkscape:connector-curvature="0" /></g><g
           id="g68"
           transform="translate(1385.0684,388.8984)"><path
             d="m 0,0 0,-9.668 -22.236,0 0,-12.644 17.031,0 0,-9.296 -17.031,0 0,-12.904 22.236,0 0,-9.668 -34.881,0 0,54.18 L 0,0 Z"
             style="fill:#7ab800;fill-opacity:1;fill-rule:nonzero;stroke:none"
             id="path70"
             inkscape:connector-curvature="0" /></g></g></g><g
       id="g76"><g
         id="g78"
         clip-path="url(#clipPath80)"><g
           id="g84"
           transform="translate(367.873,497.0273)"><path
             d="M 0,0 10.359,-132.322"
             style="fill:none;stroke:#ff0000;stroke-width:15.40299988;stroke-linecap:butt;stroke-linejoin:miter;stroke-miterlimit:4;stroke-dasharray:none;stroke-opacity:1"
             id="path86"
             inkscape:connector-curvature="0" /></g><g
           id="g88"
           transform="translate(344.5039,493.0654)"><path
             d="M 0,0 33.799,-128.348"
             style="fill:none;stroke:#ff0000;stroke-width:15.40299988;stroke-linecap:butt;stroke-linejoin:miter;stroke-miterlimit:4;stroke-dasharray:none;stroke-opacity:1"
             id="path90"
             inkscape:connector-curvature="0" /></g><g
           id="g92"
           transform="translate(322.21,484.9971)"><path
             d="M 0,0 56.16,-120.253"
             style="fill:none;stroke:#ff0000;stroke-width:15.40299988;stroke-linecap:butt;stroke-linejoin:miter;stroke-miterlimit:4;stroke-dasharray:none;stroke-opacity:1"
             id="path94"
             inkscape:connector-curvature="0" /></g><g
           id="g96"
           transform="translate(301.7158,473.082)"><path
             d="M 0,0 76.719,-108.304"
             style="fill:none;stroke:#ff0000;stroke-width:15.40299988;stroke-linecap:butt;stroke-linejoin:miter;stroke-miterlimit:4;stroke-dasharray:none;stroke-opacity:1"
             id="path98"
             inkscape:connector-curvature="0" /></g><g
           id="g100"
           transform="translate(283.6748,457.6943)"><path
             d="M 0,0 94.815,-92.87"
             style="fill:none;stroke:#ff0000;stroke-width:15.40299988;stroke-linecap:butt;stroke-linejoin:miter;stroke-miterlimit:4;stroke-dasharray:none;stroke-opacity:1"
             id="path102"
             inkscape:connector-curvature="0" /></g><g
           id="g104"
           transform="translate(268.6689,439.3438)"><path
             d="M 0,0 109.868,-74.466"
             style="fill:none;stroke:#ff0000;stroke-width:15.40299988;stroke-linecap:butt;stroke-linejoin:miter;stroke-miterlimit:4;stroke-dasharray:none;stroke-opacity:1"
             id="path106"
             inkscape:connector-curvature="0" /></g><g
           id="g108"
           transform="translate(257.1787,418.6025)"><path
             d="M 0,0 121.396,-53.661"
             style="fill:none;stroke:#ff0000;stroke-width:15.40299988;stroke-linecap:butt;stroke-linejoin:miter;stroke-miterlimit:4;stroke-dasharray:none;stroke-opacity:1"
             id="path110"
             inkscape:connector-curvature="0" /></g><g
           id="g112"
           transform="translate(249.5742,396.1426)"><path
             d="M 0,0 129.027,-31.127"
             style="fill:none;stroke:#ff0000;stroke-width:15.40299988;stroke-linecap:butt;stroke-linejoin:miter;stroke-miterlimit:4;stroke-dasharray:none;stroke-opacity:1"
             id="path114"
             inkscape:connector-curvature="0" /></g><g
           id="g116"
           transform="translate(246.1064,372.6934)"><path
             d="M 0,0 132.504,-7.607"
             style="fill:none;stroke:#ff0000;stroke-width:15.40299988;stroke-linecap:butt;stroke-linejoin:miter;stroke-miterlimit:4;stroke-dasharray:none;stroke-opacity:1"
             id="path118"
             inkscape:connector-curvature="0" /></g><g
           id="g120"
           transform="translate(246.874,348.9951)"><path
             d="M 0,0 131.736,16.164"
             style="fill:none;stroke:#ff0000;stroke-width:15.40299988;stroke-linecap:butt;stroke-linejoin:miter;stroke-miterlimit:4;stroke-dasharray:none;stroke-opacity:1"
             id="path122"
             inkscape:connector-curvature="0" /></g><g
           id="g124"
           transform="translate(251.8594,325.8145)"><path
             d="M 0,0 126.734,39.412"
             style="fill:none;stroke:#ff0000;stroke-width:15.40299988;stroke-linecap:butt;stroke-linejoin:miter;stroke-miterlimit:4;stroke-dasharray:none;stroke-opacity:1"
             id="path126"
             inkscape:connector-curvature="0" /></g><g
           id="g128"
           transform="translate(260.9004,303.8975)"><path
             d="M 0,0 117.664,61.399"
             style="fill:none;stroke:#ff0000;stroke-width:15.40299988;stroke-linecap:butt;stroke-linejoin:miter;stroke-miterlimit:4;stroke-dasharray:none;stroke-opacity:1"
             id="path130"
             inkscape:connector-curvature="0" /></g><g
           id="g132"
           transform="translate(273.7061,283.9473)"><path
             d="M 0,0 104.82,81.411"
             style="fill:none;stroke:#ff0000;stroke-width:15.40299988;stroke-linecap:butt;stroke-linejoin:miter;stroke-miterlimit:4;stroke-dasharray:none;stroke-opacity:1"
             id="path134"
             inkscape:connector-curvature="0" /></g><g
           id="g136"
           transform="translate(289.8672,266.6016)"><path
             d="M 0,0 88.605,98.807"
             style="fill:none;stroke:#ff0000;stroke-width:15.40299988;stroke-linecap:butt;stroke-linejoin:miter;stroke-miterlimit:4;stroke-dasharray:none;stroke-opacity:1"
             id="path138"
             inkscape:connector-curvature="0" /></g><g
           id="g140"
           transform="translate(308.8604,252.418)"><path
             d="M 0,0 69.558,113.037"
             style="fill:none;stroke:#ff0000;stroke-width:15.40299988;stroke-linecap:butt;stroke-linejoin:miter;stroke-miterlimit:4;stroke-dasharray:none;stroke-opacity:1"
             id="path142"
             inkscape:connector-curvature="0" /></g><g
           id="g144"
           transform="translate(330.0879,241.8535)"><path
             d="M 0,0 48.265,123.634"
             style="fill:none;stroke:#ff0000;stroke-width:15.40299988;stroke-linecap:butt;stroke-linejoin:miter;stroke-miterlimit:4;stroke-dasharray:none;stroke-opacity:1"
             id="path146"
             inkscape:connector-curvature="0" /></g><g
           id="g148"
           transform="translate(352.8574,235.2451)"><path
             d="M 0,0 25.429,130.261"
             style="fill:none;stroke:#ff0000;stroke-width:15.40299988;stroke-linecap:butt;stroke-linejoin:miter;stroke-miterlimit:4;stroke-dasharray:none;stroke-opacity:1"
             id="path150"
             inkscape:connector-curvature="0" /></g><g
           id="g152"
           transform="translate(376.4395,232.8047)"><path
             d="M 0,0 1.77,132.71"
             style="fill:none;stroke:#ff0000;stroke-width:15.40299988;stroke-linecap:butt;stroke-linejoin:miter;stroke-miterlimit:4;stroke-dasharray:none;stroke-opacity:1"
             id="path154"
             inkscape:connector-curvature="0" /></g><g
           id="g156"
           transform="translate(400.082,234.6133)"><path
             d="M 0,0 -21.939,130.898"
             style="fill:none;stroke:#ff0000;stroke-width:15.40299988;stroke-linecap:butt;stroke-linejoin:miter;stroke-miterlimit:4;stroke-dasharray:none;stroke-opacity:1"
             id="path158"
             inkscape:connector-curvature="0" /></g><g
           id="g160"
           transform="translate(423.0156,240.6143)"><path
             d="M 0,0 -44.944,124.879"
             style="fill:none;stroke:#ff0000;stroke-width:15.40299988;stroke-linecap:butt;stroke-linejoin:miter;stroke-miterlimit:4;stroke-dasharray:none;stroke-opacity:1"
             id="path162"
             inkscape:connector-curvature="0" /></g><g
           id="g164"
           transform="translate(444.5146,250.6094)"><path
             d="M 0,0 -66.51,114.857"
             style="fill:none;stroke:#ff0000;stroke-width:15.40299988;stroke-linecap:butt;stroke-linejoin:miter;stroke-miterlimit:4;stroke-dasharray:none;stroke-opacity:1"
             id="path166"
             inkscape:connector-curvature="0" /></g><g
           id="g168"
           transform="translate(463.8838,264.2744)"><path
             d="M 0,0 -85.936,101.151"
             style="fill:none;stroke:#ff0000;stroke-width:15.40299988;stroke-linecap:butt;stroke-linejoin:miter;stroke-miterlimit:4;stroke-dasharray:none;stroke-opacity:1"
             id="path170"
             inkscape:connector-curvature="0" /></g><g
           id="g172"
           transform="translate(480.499,281.1885)"><path
             d="M 0,0 -102.604,84.185"
             style="fill:none;stroke:#ff0000;stroke-width:15.40299988;stroke-linecap:butt;stroke-linejoin:miter;stroke-miterlimit:4;stroke-dasharray:none;stroke-opacity:1"
             id="path174"
             inkscape:connector-curvature="0" /></g><g
           id="g176"
           transform="translate(493.8389,300.792)"><path
             d="M 0,0 -115.98,64.528"
             style="fill:none;stroke:#ff0000;stroke-width:15.40299988;stroke-linecap:butt;stroke-linejoin:miter;stroke-miterlimit:4;stroke-dasharray:none;stroke-opacity:1"
             id="path178"
             inkscape:connector-curvature="0" /></g><g
           id="g180"
           transform="translate(503.46,322.457)"><path
             d="M 0,0 -125.634,42.796"
             style="fill:none;stroke:#ff0000;stroke-width:15.40299988;stroke-linecap:butt;stroke-linejoin:miter;stroke-miterlimit:4;stroke-dasharray:none;stroke-opacity:1"
             id="path182"
             inkscape:connector-curvature="0" /></g><g
           id="g184"
           transform="translate(509.0664,345.4961)"><path
             d="M 0,0 -131.259,19.687"
             style="fill:none;stroke:#ff0000;stroke-width:15.40299988;stroke-linecap:butt;stroke-linejoin:miter;stroke-miterlimit:4;stroke-dasharray:none;stroke-opacity:1"
             id="path186"
             inkscape:connector-curvature="0" /></g><g
           id="g188"
           transform="translate(510.4609,369.168)"><path
             d="M 0,0 -132.658,-4.056"
             style="fill:none;stroke:#ff0000;stroke-width:15.40299988;stroke-linecap:butt;stroke-linejoin:miter;stroke-miterlimit:4;stroke-dasharray:none;stroke-opacity:1"
             id="path190"
             inkscape:connector-curvature="0" /></g><g
           id="g192"
           transform="translate(507.6152,392.7021)"><path
             d="M 0,0 -129.802,-27.66"
             style="fill:none;stroke:#ff0000;stroke-width:15.40299988;stroke-linecap:butt;stroke-linejoin:miter;stroke-miterlimit:4;stroke-dasharray:none;stroke-opacity:1"
             id="path194"
             inkscape:connector-curvature="0" /></g><g
           id="g196"
           transform="translate(500.6104,415.3574)"><path
             d="M 0,0 -122.781,-50.387"
             style="fill:none;stroke:#ff0000;stroke-width:15.40299988;stroke-linecap:butt;stroke-linejoin:miter;stroke-miterlimit:4;stroke-dasharray:none;stroke-opacity:1"
             id="path198"
             inkscape:connector-curvature="0" /></g><g
           id="g200"
           transform="translate(489.6846,436.3896)"><path
             d="M 0,0 -111.823,-71.482"
             style="fill:none;stroke:#ff0000;stroke-width:15.40299988;stroke-linecap:butt;stroke-linejoin:miter;stroke-miterlimit:4;stroke-dasharray:none;stroke-opacity:1"
             id="path202"
             inkscape:connector-curvature="0" /></g><g
           id="g204"
           transform="translate(475.1738,455.1445)"><path
             d="M 0,0 -97.272,-90.299"
             style="fill:none;stroke:#ff0000;stroke-width:15.40299988;stroke-linecap:butt;stroke-linejoin:miter;stroke-miterlimit:4;stroke-dasharray:none;stroke-opacity:1"
             id="path206"
             inkscape:connector-curvature="0" /></g><g
           id="g208"
           transform="translate(457.5488,471.002)"><path
             d="M 0,0 -79.595,-106.204"
             style="fill:none;stroke:#ff0000;stroke-width:15.40299988;stroke-linecap:butt;stroke-linejoin:miter;stroke-miterlimit:4;stroke-dasharray:none;stroke-opacity:1"
             id="path210"
             inkscape:connector-curvature="0" /></g><g
           id="g212"
           transform="translate(437.3779,483.4619)"><path
             d="M 0,0 -59.36,-118.702"
             style="fill:none;stroke:#ff0000;stroke-width:15.40299988;stroke-linecap:butt;stroke-linejoin:miter;stroke-miterlimit:4;stroke-dasharray:none;stroke-opacity:1"
             id="path214"
             inkscape:connector-curvature="0" /></g><g
           id="g216"
           transform="translate(415.3086,492.124)"><path
             d="M 0,0 -37.228,-127.396"
             style="fill:none;stroke:#ff0000;stroke-width:15.40299988;stroke-linecap:butt;stroke-linejoin:miter;stroke-miterlimit:4;stroke-dasharray:none;stroke-opacity:1"
             id="path218"
             inkscape:connector-curvature="0" /></g><g
           id="g220"
           transform="translate(392.0469,496.7041)"><path
             d="M 0,0 -13.898,-131.989"
             style="fill:none;stroke:#ff0000;stroke-width:15.40299988;stroke-linecap:butt;stroke-linejoin:miter;stroke-miterlimit:4;stroke-dasharray:none;stroke-opacity:1"
             id="path222"
             inkscape:connector-curvature="0" /></g><g
           id="g224"
           transform="translate(515.1914,530.7773)"><path
             d="M 0,0 -16.834,12.575 87.25,151.94 104.086,139.364 0,0 Z"
             style="fill:#7ab800;fill-opacity:1;fill-rule:nonzero;stroke:none"
             id="path226"
             inkscape:connector-curvature="0" /></g><g
           id="g228"
           transform="translate(483.5156,552.5146)"><path
             d="M 0,0 -18.811,9.37 18.541,84.371 37.351,75.004 0,0 Z"
             style="fill:#7ab800;fill-opacity:1;fill-rule:nonzero;stroke:none"
             id="path230"
             inkscape:connector-curvature="0" /></g><g
           id="g232"
           transform="translate(448.4668,568.2451)"><path
             d="M 0,0 -20.185,5.862 16.549,132.373 36.734,126.515 0,0 Z"
             style="fill:#7ab800;fill-opacity:1;fill-rule:nonzero;stroke:none"
             id="path234"
             inkscape:connector-curvature="0" /></g><g
           id="g236"
           transform="translate(411.1738,577.4648)"><path
             d="M 0,0 -20.905,2.163 -12.294,85.479 8.618,83.313 0,0 Z"
             style="fill:#7ab800;fill-opacity:1;fill-rule:nonzero;stroke:none"
             id="path238"
             inkscape:connector-curvature="0" /></g><g
           id="g240"
           transform="translate(351.876,578.2744)"><path
             d="M 0,0 -7.171,93.579 13.782,95.182 20.954,1.604 0,0 Z"
             style="fill:#7ab800;fill-opacity:1;fill-rule:nonzero;stroke:none"
             id="path242"
             inkscape:connector-curvature="0" /></g><g
           id="g244"
           transform="translate(314.3467,570.0889)"><path
             d="M 0,0 -16.269,62.141 4.061,67.463 20.318,5.322 0,0 Z"
             style="fill:#7ab800;fill-opacity:1;fill-rule:nonzero;stroke:none"
             id="path246"
             inkscape:connector-curvature="0" /></g><g
           id="g248"
           transform="translate(278.8838,555.3281)"><path
             d="M 0,0 -18.169,39.04 0.874,47.905 19.048,8.865 0,0 Z"
             style="fill:#7ab800;fill-opacity:1;fill-rule:nonzero;stroke:none"
             id="path250"
             inkscape:connector-curvature="0" /></g><g
           id="g252"
           transform="translate(246.6133,534.4717)"><path
             d="M 0,0 -9.738,13.794 7.427,25.916 17.158,12.121 0,0 Z"
             style="fill:#7ab800;fill-opacity:1;fill-rule:nonzero;stroke:none"
             id="path254"
             inkscape:connector-curvature="0" /></g><g
           id="g256"
           transform="translate(218.5928,508.1895)"><path
             d="M 0,0 -49.279,48.381 -34.562,63.38 14.721,15.001 0,0 Z"
             style="fill:#7ab800;fill-opacity:1;fill-rule:nonzero;stroke:none"
             id="path258"
             inkscape:connector-curvature="0" /></g><g
           id="g260"
           transform="translate(195.7119,477.332)"><path
             d="M 0,0 -76.251,52.288 -64.441,69.666 11.81,17.378 0,0 Z"
             style="fill:#7ab800;fill-opacity:1;fill-rule:nonzero;stroke:none"
             id="path262"
             inkscape:connector-curvature="0" /></g><g
           id="g264"
           transform="translate(178.7119,442.8867)"><path
             d="M 0,0 -48.018,21.282 -39.502,40.49 8.52,19.206 0,0 Z"
             style="fill:#7ab800;fill-opacity:1;fill-rule:nonzero;stroke:none"
             id="path266"
             inkscape:connector-curvature="0" /></g><g
           id="g268"
           transform="translate(25.9146,440.4102)"><path
             d="m 0,0 142.23,-34.459 4.944,20.422 L 4.95,20.418 0,0 Z"
             style="fill:#7ab800;fill-opacity:1;fill-rule:nonzero;stroke:none"
             id="path270"
             inkscape:connector-curvature="0" /></g><g
           id="g272"
           transform="translate(164.3301,367.7236)"><path
             d="m 0,0 -106.11,6.18 1.225,20.982 L 1.222,20.979 0,0 Z"
             style="fill:#7ab800;fill-opacity:1;fill-rule:nonzero;stroke:none"
             id="path274"
             inkscape:connector-curvature="0" /></g><g
           id="g276"
           transform="translate(64.5645,316.8945)"><path
             d="M 0,0 -2.54,20.854 100.304,33.394 102.845,12.542 0,0 Z"
             style="fill:#7ab800;fill-opacity:1;fill-rule:nonzero;stroke:none"
             id="path278"
             inkscape:connector-curvature="0" /></g><g
           id="g280"
           transform="translate(154.2627,285.1729)"><path
             d="M 0,0 -6.227,20.066 16.781,27.203 23.004,7.141 0,0 Z"
             style="fill:#7ab800;fill-opacity:1;fill-rule:nonzero;stroke:none"
             id="path282"
             inkscape:connector-curvature="0" /></g><g
           id="g284"
           transform="translate(116.2988,217.252)"><path
             d="M 0,0 -9.709,18.636 67.591,58.921 77.303,40.286 0,0 Z"
             style="fill:#7ab800;fill-opacity:1;fill-rule:nonzero;stroke:none"
             id="path286"
             inkscape:connector-curvature="0" /></g><g
           id="g288"
           transform="translate(141.6357,168.6299)"><path
             d="M 0,0 -12.88,16.6 61.367,74.209 74.245,57.612 0,0 Z"
             style="fill:#7ab800;fill-opacity:1;fill-rule:nonzero;stroke:none"
             id="path290"
             inkscape:connector-curvature="0" /></g><g
           id="g292"
           transform="translate(182.2109,131.252)"><path
             d="M 0,0 -15.638,14.031 45.547,82.208 61.185,68.177 0,0 Z"
             style="fill:#7ab800;fill-opacity:1;fill-rule:nonzero;stroke:none"
             id="path294"
             inkscape:connector-curvature="0" /></g><g
           id="g296"
           transform="translate(253.0859,141.9482)"><path
             d="M 0,0 -17.897,11.016 4.269,47.028 22.164,36.013 0,0 Z"
             style="fill:#7ab800;fill-opacity:1;fill-rule:nonzero;stroke:none"
             id="path298"
             inkscape:connector-curvature="0" /></g><g
           id="g300"
           transform="translate(280.4834,85.8359)"><path
             d="M 0,0 -19.572,7.646 10.372,84.333 29.943,76.688 0,0 Z"
             style="fill:#7ab800;fill-opacity:1;fill-rule:nonzero;stroke:none"
             id="path302"
             inkscape:connector-curvature="0" /></g><g
           id="g304"
           transform="translate(333.3242,79.457)"><path
             d="M 0,0 -20.623,4.026 -6.15,78.179 14.473,74.155 0,0 Z"
             style="fill:#7ab800;fill-opacity:1;fill-rule:nonzero;stroke:none"
             id="path306"
             inkscape:connector-curvature="0" /></g><g
           id="g308"
           transform="translate(385.4561,98.9736)"><path
             d="M 0,0 -21.011,0.281 -20.313,52.824 0.697,52.549 0,0 Z"
             style="fill:#7ab800;fill-opacity:1;fill-rule:nonzero;stroke:none"
             id="path310"
             inkscape:connector-curvature="0" /></g><g
           id="g312"
           transform="translate(420.3613,52.623)"><path
             d="M 0,0 -16.814,100.212 3.912,103.691 20.723,3.481 0,0 Z"
             style="fill:#7ab800;fill-opacity:1;fill-rule:nonzero;stroke:none"
             id="path314"
             inkscape:connector-curvature="0" /></g><g
           id="g316"
           transform="translate(461.9531,102.958)"><path
             d="M 0,0 -20.801,57.754 -1.037,64.872 19.763,7.121 0,0 Z"
             style="fill:#7ab800;fill-opacity:1;fill-rule:nonzero;stroke:none"
             id="path318"
             inkscape:connector-curvature="0" /></g><g
           id="g320"
           transform="translate(476.7422,175.168)"><path
             d="M 0,0 76.211,-129.983 94.395,-119.441 18.179,10.535 0,0 Z"
             style="fill:#7ab800;fill-opacity:1;fill-rule:nonzero;stroke:none"
             id="path322"
             inkscape:connector-curvature="0" /></g><g
           id="g324"
           transform="translate(521.2012,183.374)"><path
             d="M 0,0 -11.614,11.921 3.569,26.45 15.188,14.531 0,0 Z"
             style="fill:#7ab800;fill-opacity:1;fill-rule:nonzero;stroke:none"
             id="path326"
             inkscape:connector-curvature="0" /></g><g
           id="g328"
           transform="translate(589.8047,178.8691)"><path
             d="M 0,0 -52.39,42.928 -39.067,59.182 13.323,16.256 0,0 Z"
             style="fill:#7ab800;fill-opacity:1;fill-rule:nonzero;stroke:none"
             id="path330"
             inkscape:connector-curvature="0" /></g><g
           id="g332"
           transform="translate(614.0664,222.7529)"><path
             d="M 0,0 -53.506,29.716 -43.311,48.086 10.202,18.374 0,0 Z"
             style="fill:#7ab800;fill-opacity:1;fill-rule:nonzero;stroke:none"
             id="path334"
             inkscape:connector-curvature="0" /></g><g
           id="g336"
           transform="translate(603.6904,278.001)"><path
             d="M 0,0 -25.85,8.78 -19.092,28.679 6.749,19.901 0,0 Z"
             style="fill:#7ab800;fill-opacity:1;fill-rule:nonzero;stroke:none"
             id="path338"
             inkscape:connector-curvature="0" /></g><g
           id="g340"
           transform="translate(669.7051,311.5576)"><path
             d="M 0,0 -80.979,12.065 -77.886,32.848 3.097,20.785 0,0 Z"
             style="fill:#7ab800;fill-opacity:1;fill-rule:nonzero;stroke:none"
             id="path342"
             inkscape:connector-curvature="0" /></g><g
           id="g344"
           transform="translate(592.8564,361.8213)"><path
             d="M 0,0 -0.668,21.002 51.296,22.644 51.966,1.636 0,0 Z"
             style="fill:#7ab800;fill-opacity:1;fill-rule:nonzero;stroke:none"
             id="path346"
             inkscape:connector-curvature="0" /></g><g
           id="g348"
           transform="translate(590.1025,400.1367)"><path
             d="M 0,0 -4.405,20.546 59.847,34.324 64.257,13.777 0,0 Z"
             style="fill:#7ab800;fill-opacity:1;fill-rule:nonzero;stroke:none"
             id="path350"
             inkscape:connector-curvature="0" /></g><g
           id="g352"
           transform="translate(580.5488,437.3535)"><path
             d="M 0,0 -8.003,19.426 33.451,36.5 41.448,17.077 0,0 Z"
             style="fill:#7ab800;fill-opacity:1;fill-rule:nonzero;stroke:none"
             id="path354"
             inkscape:connector-curvature="0" /></g><g
           id="g356"
           transform="translate(564.502,472.2539)"><path
             d="M 0,0 -11.339,17.693 98.385,88.057 109.73,70.365 0,0 Z"
             style="fill:#7ab800;fill-opacity:1;fill-rule:nonzero;stroke:none"
             id="path358"
             inkscape:connector-curvature="0" /></g><g
           id="g360"
           transform="translate(542.4844,503.7383)"><path
             d="M 0,0 -14.318,15.372 2.259,30.813 16.569,15.438 0,0 Z"
             style="fill:#7ab800;fill-opacity:1;fill-rule:nonzero;stroke:none"
             id="path362"
             inkscape:connector-curvature="0" /></g></g></g><flowRoot
       xml:space="preserve"
       id="flowRoot4263"
       style="font-style:normal;font-variant:normal;font-weight:normal;font-stretch:normal;font-size:90px;line-height:125%;font-family:Lato;-inkscape-font-specification:Lato;letter-spacing:15.25px;word-spacing:0px;fill:#7ab800;fill-opacity:1;stroke:none;stroke-width:1px;stroke-linecap:butt;stroke-linejoin:miter;stroke-opacity:1"
       transform="matrix(0.8,0,0,-0.8,152.39043,642.86107)"><flowRegion
         id="flowRegion4265"><rect
           id="rect4267"
           width="897.59619"
           height="206.89275"
           x="768.68616"
           y="416.88641"
           style="font-style:normal;font-variant:normal;font-weight:normal;font-stretch:normal;font-size:90px;font-family:Lato;-inkscape-font-specification:Lato;letter-spacing:15.25px;fill:#7ab800;fill-opacity:1" /></flowRegion><flowPara
         id="flowPara4269"
         style="font-style:normal;font-variant:normal;font-weight:normal;font-stretch:normal;font-size:90px;font-family:Lato;-inkscape-font-specification:Lato;letter-spacing:15.25px;fill:#7ab800;fill-opacity:1">ESTONIA</flowPara></flowRoot><flowRoot
       xml:space="preserve"
       id="flowRoot4286"
       style="font-style:normal;font-variant:normal;font-weight:bold;font-stretch:normal;font-size:116px;line-height:125%;font-family:sans-serif;-inkscape-font-specification:'sans-serif Bold';text-align:center;letter-spacing:-5.61600018px;word-spacing:0px;text-anchor:middle;fill:#ffffff;fill-opacity:1;stroke:none;stroke-width:1px;stroke-linecap:butt;stroke-linejoin:miter;stroke-opacity:1"
       transform="translate(338.061,-307.29986)"><flowRegion
         id="flowRegion4288"><rect
           id="rect4290"
           width="185.20917"
           height="179.17108"
           x="-54.98938"
           y="-778.55017"
           style="font-style:normal;font-variant:normal;font-weight:bold;font-stretch:normal;font-size:116px;font-family:sans-serif;-inkscape-font-specification:'sans-serif Bold';text-align:center;letter-spacing:-5.61600018px;text-anchor:middle;fill:#ffffff;fill-opacity:1"
           transform="scale(1,-1)" /></flowRegion><flowPara
         id="flowPara4292"
         style="font-style:normal;font-variant:normal;font-weight:bold;font-stretch:normal;font-size:112px;font-family:Lato;-inkscape-font-specification:'Lato Bold';text-align:center;letter-spacing:-0.352px;text-anchor:middle;fill:#ffffff;fill-opacity:1">EE</flowPara></flowRoot></g></svg>